<svg width="261" height="18" viewBox="0 0 261 18" fill="none" xmlns="http://www.w3.org/2000/svg">
<path d="M0.600007 17.0879C0.424007 17.0879 0.280007 17.0319 0.168007 16.9199C0.0560074 16.8079 7.33137e-06 16.6639 7.33137e-06 16.4879V0.88789C7.33137e-06 0.71189 0.0560074 0.56789 0.168007 0.45589C0.280007 0.34389 0.424007 0.287889 0.600007 0.287889H3.14401C3.41601 0.287889 3.60801 0.35189 3.72001 0.47989C3.84801 0.591889 3.92801 0.679889 3.96001 0.743889L9.81601 9.98389V0.88789C9.81601 0.71189 9.87201 0.56789 9.98401 0.45589C10.096 0.34389 10.24 0.287889 10.416 0.287889H13.296C13.472 0.287889 13.616 0.34389 13.728 0.45589C13.84 0.56789 13.896 0.71189 13.896 0.88789V16.4879C13.896 16.6479 13.84 16.7919 13.728 16.9199C13.616 17.0319 13.472 17.0879 13.296 17.0879H10.728C10.472 17.0879 10.28 17.0239 10.152 16.8959C10.04 16.7679 9.96801 16.6799 9.93601 16.6319L4.08001 7.75189V16.4879C4.08001 16.6639 4.02401 16.8079 3.91201 16.9199C3.80001 17.0319 3.65601 17.0879 3.48001 17.0879H0.600007ZM16.29 17.0879C16.162 17.0879 16.042 17.0399 15.93 16.9439C15.834 16.8319 15.786 16.7119 15.786 16.5839C15.786 16.5039 15.794 16.4319 15.81 16.3679L21.45 0.959889C21.498 0.78389 21.594 0.63189 21.738 0.50389C21.898 0.35989 22.114 0.287889 22.386 0.287889H25.938C26.21 0.287889 26.418 0.35989 26.562 0.50389C26.722 0.63189 26.826 0.78389 26.874 0.959889L32.49 16.3679C32.522 16.4319 32.538 16.5039 32.538 16.5839C32.538 16.7119 32.482 16.8319 32.37 16.9439C32.274 17.0399 32.154 17.0879 32.01 17.0879H29.058C28.818 17.0879 28.634 17.0319 28.506 16.9199C28.394 16.7919 28.322 16.6799 28.29 16.5839L27.354 14.1359H20.946L20.034 16.5839C20.002 16.6799 19.93 16.7919 19.818 16.9199C19.706 17.0319 19.514 17.0879 19.242 17.0879H16.29ZM21.93 10.6799H26.394L24.138 4.34389L21.93 10.6799ZM35.0297 17.0879C34.8697 17.0879 34.7257 17.0319 34.5977 16.9199C34.4857 16.8079 34.4297 16.6639 34.4297 16.4879V0.88789C34.4297 0.71189 34.4857 0.56789 34.5977 0.45589C34.7257 0.34389 34.8697 0.287889 35.0297 0.287889H37.6217C37.8777 0.287889 38.0697 0.35989 38.1977 0.50389C38.3417 0.63189 38.4297 0.73589 38.4617 0.81589L42.6857 8.39989L46.9097 0.81589C46.9577 0.73589 47.0377 0.63189 47.1497 0.50389C47.2777 0.35989 47.4777 0.287889 47.7497 0.287889H50.3177C50.4937 0.287889 50.6377 0.34389 50.7497 0.45589C50.8777 0.56789 50.9417 0.71189 50.9417 0.88789V16.4879C50.9417 16.6639 50.8777 16.8079 50.7497 16.9199C50.6377 17.0319 50.4937 17.0879 50.3177 17.0879H47.4617C47.2857 17.0879 47.1337 17.0319 47.0057 16.9199C46.8937 16.8079 46.8377 16.6639 46.8377 16.4879V7.48789L44.1257 12.5039C44.0617 12.6479 43.9657 12.7759 43.8377 12.8879C43.7097 12.9999 43.5337 13.0559 43.3097 13.0559H42.0617C41.8377 13.0559 41.6617 12.9999 41.5337 12.8879C41.4057 12.7759 41.3017 12.6479 41.2217 12.5039L38.5097 7.48789V16.4879C38.5097 16.6639 38.4537 16.8079 38.3417 16.9199C38.2297 17.0319 38.0857 17.0879 37.9097 17.0879H35.0297ZM53.3213 17.0879C53.1933 17.0879 53.0733 17.0399 52.9613 16.9439C52.8653 16.8319 52.8173 16.7119 52.8173 16.5839C52.8173 16.5039 52.8253 16.4319 52.8413 16.3679L58.4813 0.959889C58.5293 0.78389 58.6253 0.63189 58.7693 0.50389C58.9293 0.35989 59.1453 0.287889 59.4173 0.287889H62.9693C63.2413 0.287889 63.4493 0.35989 63.5933 0.50389C63.7533 0.63189 63.8573 0.78389 63.9053 0.959889L69.5213 16.3679C69.5533 16.4319 69.5693 16.5039 69.5693 16.5839C69.5693 16.7119 69.5133 16.8319 69.4013 16.9439C69.3053 17.0399 69.1853 17.0879 69.0413 17.0879H66.0893C65.8493 17.0879 65.6653 17.0319 65.5373 16.9199C65.4253 16.7919 65.3533 16.6799 65.3213 16.5839L64.3853 14.1359H57.9773L57.0653 16.5839C57.0333 16.6799 56.9613 16.7919 56.8493 16.9199C56.7373 17.0319 56.5453 17.0879 56.2733 17.0879H53.3213ZM58.9613 10.6799H63.4253L61.1693 4.34389L58.9613 10.6799ZM72.0609 17.0879C71.8849 17.0879 71.7409 17.0319 71.6289 16.9199C71.5169 16.8079 71.4609 16.6639 71.4609 16.4879V0.88789C71.4609 0.71189 71.5169 0.56789 71.6289 0.45589C71.7409 0.34389 71.8849 0.287889 72.0609 0.287889H74.6049C74.8769 0.287889 75.0689 0.35189 75.1809 0.47989C75.3089 0.591889 75.3889 0.679889 75.4209 0.743889L81.2769 9.98389V0.88789C81.2769 0.71189 81.3329 0.56789 81.4449 0.45589C81.5569 0.34389 81.7009 0.287889 81.8769 0.287889H84.7569C84.9329 0.287889 85.0769 0.34389 85.1889 0.45589C85.3009 0.56789 85.3569 0.71189 85.3569 0.88789V16.4879C85.3569 16.6479 85.3009 16.7919 85.1889 16.9199C85.0769 17.0319 84.9329 17.0879 84.7569 17.0879H82.1889C81.9329 17.0879 81.7409 17.0239 81.6129 16.8959C81.5009 16.7679 81.4289 16.6799 81.3969 16.6319L75.5409 7.75189V16.4879C75.5409 16.6639 75.4849 16.8079 75.3729 16.9199C75.2609 17.0319 75.1169 17.0879 74.9409 17.0879H72.0609ZM95.6469 17.3279C94.1269 17.3279 92.8149 17.0799 91.7109 16.5839C90.6229 16.0719 89.7749 15.3359 89.1669 14.3759C88.5749 13.3999 88.2469 12.2159 88.1829 10.8239C88.1669 10.1359 88.1589 9.40789 88.1589 8.63989C88.1589 7.85589 88.1669 7.11189 88.1829 6.40789C88.2469 5.04789 88.5829 3.89589 89.1909 2.95189C89.7989 2.00789 90.6549 1.28789 91.7589 0.79189C92.8629 0.29589 94.1589 0.0478897 95.6469 0.0478897C96.8469 0.0478897 97.9109 0.19989 98.8389 0.50389C99.7669 0.79189 100.543 1.18389 101.167 1.67989C101.807 2.17589 102.287 2.71989 102.607 3.31189C102.943 3.90389 103.119 4.48789 103.135 5.06389C103.151 5.20789 103.103 5.32789 102.991 5.42389C102.895 5.51989 102.775 5.56789 102.631 5.56789H99.1269C98.9509 5.56789 98.8149 5.54389 98.7189 5.49589C98.6389 5.43189 98.5669 5.34389 98.5029 5.23189C98.3909 4.99189 98.2229 4.74389 97.9989 4.48789C97.7909 4.21589 97.4949 3.98389 97.1109 3.79189C96.7429 3.59989 96.2549 3.50389 95.6469 3.50389C94.7349 3.50389 94.0149 3.74389 93.4869 4.22389C92.9749 4.70389 92.6949 5.47189 92.6469 6.52789C92.5989 7.90389 92.5989 9.29589 92.6469 10.7039C92.6949 11.8239 92.9909 12.6319 93.5349 13.1279C94.0789 13.6239 94.7989 13.8719 95.6949 13.8719C96.3029 13.8719 96.8389 13.7679 97.3029 13.5599C97.7829 13.3519 98.1589 13.0319 98.4309 12.5999C98.7029 12.1519 98.8389 11.5839 98.8389 10.8959V10.4399H96.5829C96.4069 10.4399 96.2549 10.3839 96.1269 10.2719C96.0149 10.1439 95.9589 9.99189 95.9589 9.81589V8.03989C95.9589 7.86389 96.0149 7.71989 96.1269 7.60789C96.2549 7.47989 96.4069 7.41589 96.5829 7.41589H102.631C102.807 7.41589 102.951 7.47989 103.063 7.60789C103.175 7.71989 103.231 7.86389 103.231 8.03989V10.7759C103.231 12.1519 102.919 13.3279 102.295 14.3039C101.671 15.2799 100.783 16.0319 99.6309 16.5599C98.4949 17.0719 97.1669 17.3279 95.6469 17.3279ZM104.649 17.0879C104.521 17.0879 104.401 17.0399 104.289 16.9439C104.193 16.8319 104.145 16.7119 104.145 16.5839C104.145 16.5039 104.153 16.4319 104.169 16.3679L109.809 0.959889C109.857 0.78389 109.953 0.63189 110.097 0.50389C110.257 0.35989 110.473 0.287889 110.745 0.287889H114.297C114.569 0.287889 114.777 0.35989 114.921 0.50389C115.081 0.63189 115.185 0.78389 115.233 0.959889L120.849 16.3679C120.881 16.4319 120.897 16.5039 120.897 16.5839C120.897 16.7119 120.841 16.8319 120.729 16.9439C120.633 17.0399 120.513 17.0879 120.369 17.0879H117.417C117.177 17.0879 116.993 17.0319 116.865 16.9199C116.753 16.7919 116.681 16.6799 116.649 16.5839L115.713 14.1359H109.305L108.393 16.5839C108.361 16.6799 108.289 16.7919 108.177 16.9199C108.065 17.0319 107.873 17.0879 107.601 17.0879H104.649ZM110.289 10.6799H114.753L112.497 4.34389L110.289 10.6799ZM123.389 17.0879C123.213 17.0879 123.069 17.0319 122.957 16.9199C122.845 16.8079 122.789 16.6639 122.789 16.4879V0.88789C122.789 0.71189 122.845 0.56789 122.957 0.45589C123.069 0.34389 123.213 0.287889 123.389 0.287889H125.933C126.205 0.287889 126.397 0.35189 126.509 0.47989C126.637 0.591889 126.717 0.679889 126.749 0.743889L132.605 9.98389V0.88789C132.605 0.71189 132.661 0.56789 132.773 0.45589C132.885 0.34389 133.029 0.287889 133.205 0.287889H136.085C136.261 0.287889 136.405 0.34389 136.517 0.45589C136.629 0.56789 136.685 0.71189 136.685 0.88789V16.4879C136.685 16.6479 136.629 16.7919 136.517 16.9199C136.405 17.0319 136.261 17.0879 136.085 17.0879H133.517C133.261 17.0879 133.069 17.0239 132.941 16.8959C132.829 16.7679 132.757 16.6799 132.725 16.6319L126.869 7.75189V16.4879C126.869 16.6639 126.813 16.8079 126.701 16.9199C126.589 17.0319 126.445 17.0879 126.269 17.0879H123.389ZM140.639 17.0879C140.463 17.0879 140.319 17.0319 140.207 16.9199C140.095 16.8079 140.039 16.6639 140.039 16.4879V0.88789C140.039 0.71189 140.095 0.56789 140.207 0.45589C140.319 0.34389 140.463 0.287889 140.639 0.287889H143.807C143.967 0.287889 144.103 0.34389 144.215 0.45589C144.343 0.56789 144.407 0.71189 144.407 0.88789V13.4639H151.655C151.831 13.4639 151.975 13.5279 152.087 13.6559C152.215 13.7679 152.279 13.9119 152.279 14.0879V16.4879C152.279 16.6639 152.215 16.8079 152.087 16.9199C151.975 17.0319 151.831 17.0879 151.655 17.0879H140.639ZM154.959 17.0879C154.783 17.0879 154.639 17.0319 154.527 16.9199C154.415 16.8079 154.359 16.6639 154.359 16.4879V0.88789C154.359 0.71189 154.415 0.56789 154.527 0.45589C154.639 0.34389 154.783 0.287889 154.959 0.287889H158.175C158.351 0.287889 158.495 0.34389 158.607 0.45589C158.719 0.56789 158.775 0.71189 158.775 0.88789V16.4879C158.775 16.6639 158.719 16.8079 158.607 16.9199C158.495 17.0319 158.351 17.0879 158.175 17.0879H154.959ZM162.741 17.0879C162.565 17.0879 162.421 17.0319 162.309 16.9199C162.197 16.8079 162.141 16.6639 162.141 16.4879V0.88789C162.141 0.71189 162.197 0.56789 162.309 0.45589C162.421 0.34389 162.565 0.287889 162.741 0.287889H165.765C165.941 0.287889 166.085 0.34389 166.197 0.45589C166.309 0.56789 166.365 0.71189 166.365 0.88789V6.21589L170.805 0.743889C170.869 0.64789 170.973 0.55189 171.117 0.45589C171.277 0.34389 171.485 0.287889 171.741 0.287889H175.197C175.341 0.287889 175.461 0.34389 175.557 0.45589C175.653 0.55189 175.701 0.66389 175.701 0.79189C175.701 0.90389 175.669 0.999889 175.605 1.07989L169.869 8.32789L176.061 16.2959C176.125 16.3599 176.157 16.4559 176.157 16.5839C176.157 16.7119 176.101 16.8319 175.989 16.9439C175.893 17.0399 175.781 17.0879 175.653 17.0879H172.077C171.789 17.0879 171.565 17.0239 171.405 16.8959C171.261 16.7679 171.165 16.6719 171.117 16.6079L166.365 10.6799V16.4879C166.365 16.6639 166.309 16.8079 166.197 16.9199C166.085 17.0319 165.941 17.0879 165.765 17.0879H162.741ZM178.631 17.0879C178.455 17.0879 178.311 17.0319 178.199 16.9199C178.087 16.8079 178.031 16.6639 178.031 16.4879V0.88789C178.031 0.71189 178.087 0.56789 178.199 0.45589C178.311 0.34389 178.455 0.287889 178.631 0.287889H181.799C181.959 0.287889 182.095 0.34389 182.207 0.45589C182.335 0.56789 182.399 0.71189 182.399 0.88789V13.4639H189.647C189.823 13.4639 189.967 13.5279 190.079 13.6559C190.207 13.7679 190.271 13.9119 190.271 14.0879V16.4879C190.271 16.6639 190.207 16.8079 190.079 16.9199C189.967 17.0319 189.823 17.0879 189.647 17.0879H178.631ZM191.392 17.0879C191.264 17.0879 191.144 17.0399 191.032 16.9439C190.936 16.8319 190.888 16.7119 190.888 16.5839C190.888 16.5039 190.896 16.4319 190.912 16.3679L196.552 0.959889C196.6 0.78389 196.696 0.63189 196.84 0.50389C197 0.35989 197.216 0.287889 197.488 0.287889H201.04C201.312 0.287889 201.52 0.35989 201.664 0.50389C201.824 0.63189 201.928 0.78389 201.976 0.959889L207.592 16.3679C207.624 16.4319 207.64 16.5039 207.64 16.5839C207.64 16.7119 207.584 16.8319 207.472 16.9439C207.376 17.0399 207.256 17.0879 207.112 17.0879H204.16C203.92 17.0879 203.736 17.0319 203.608 16.9199C203.496 16.7919 203.424 16.6799 203.392 16.5839L202.456 14.1359H196.048L195.136 16.5839C195.104 16.6799 195.032 16.7919 194.92 16.9199C194.808 17.0319 194.616 17.0879 194.344 17.0879H191.392ZM197.032 10.6799H201.496L199.24 4.34389L197.032 10.6799ZM210.131 17.0879C209.955 17.0879 209.811 17.0319 209.699 16.9199C209.587 16.8079 209.531 16.6639 209.531 16.4879V0.88789C209.531 0.71189 209.587 0.56789 209.699 0.45589C209.811 0.34389 209.955 0.287889 210.131 0.287889H216.659C218.723 0.287889 220.347 0.767889 221.531 1.72789C222.731 2.67189 223.331 4.01589 223.331 5.75989C223.331 6.89589 223.051 7.85589 222.491 8.63989C221.947 9.42389 221.227 10.0159 220.331 10.4159L223.643 16.3199C223.691 16.4159 223.715 16.5039 223.715 16.5839C223.715 16.7119 223.659 16.8319 223.547 16.9439C223.451 17.0399 223.331 17.0879 223.187 17.0879H220.019C219.715 17.0879 219.491 17.0159 219.347 16.8719C219.203 16.7119 219.099 16.5679 219.035 16.4399L216.299 11.1599H213.827V16.4879C213.827 16.6639 213.771 16.8079 213.659 16.9199C213.547 17.0319 213.403 17.0879 213.227 17.0879H210.131ZM213.827 7.77589H216.611C217.363 7.77589 217.923 7.59189 218.291 7.22389C218.675 6.85589 218.867 6.35189 218.867 5.71189C218.867 5.08789 218.683 4.58389 218.315 4.19989C217.963 3.81589 217.395 3.62389 216.611 3.62389H213.827V7.77589ZM231.162 17.0879C230.986 17.0879 230.834 17.0319 230.706 16.9199C230.594 16.8079 230.538 16.6639 230.538 16.4879V14.7839C230.538 14.6719 230.57 14.5039 230.634 14.2799C230.698 14.0399 230.866 13.8159 231.138 13.6079L233.634 11.1599C234.914 10.1839 235.962 9.35989 236.778 8.68789C237.61 7.99989 238.226 7.39189 238.626 6.86389C239.026 6.33589 239.226 5.83989 239.226 5.37589C239.226 4.83189 239.082 4.38389 238.794 4.03189C238.522 3.66389 238.042 3.47989 237.354 3.47989C236.89 3.47989 236.498 3.58389 236.178 3.79189C235.874 3.98389 235.642 4.23989 235.482 4.55989C235.322 4.87989 235.21 5.20789 235.146 5.54389C235.082 5.75189 234.97 5.89589 234.81 5.97589C234.666 6.05589 234.506 6.09589 234.33 6.09589H231.33C231.186 6.09589 231.066 6.04789 230.97 5.95189C230.874 5.85589 230.826 5.73589 230.826 5.59189C230.842 4.82389 231.002 4.10389 231.306 3.43189C231.626 2.75989 232.066 2.16789 232.626 1.65589C233.202 1.12789 233.882 0.71989 234.666 0.43189C235.466 0.14389 236.362 -0.000109673 237.354 -0.000109673C238.714 -0.000109673 239.866 0.21589 240.81 0.647889C241.77 1.07989 242.498 1.68789 242.994 2.47189C243.49 3.23989 243.738 4.14389 243.738 5.18389C243.738 5.96789 243.562 6.70389 243.21 7.39189C242.874 8.06389 242.386 8.71189 241.746 9.33589C241.122 9.94389 240.378 10.5759 239.514 11.2319L237.306 13.4639H243.474C243.65 13.4639 243.794 13.5199 243.906 13.6319C244.034 13.7439 244.098 13.8879 244.098 14.0639V16.4879C244.098 16.6639 244.034 16.8079 243.906 16.9199C243.794 17.0319 243.65 17.0879 243.474 17.0879H231.162ZM254.406 17.0879C254.246 17.0879 254.102 17.0319 253.974 16.9199C253.862 16.8079 253.806 16.6639 253.806 16.4879V13.7759H246.342C246.182 13.7759 246.038 13.7199 245.91 13.6079C245.798 13.4959 245.742 13.3519 245.742 13.1759V10.8959C245.742 10.7519 245.766 10.6239 245.814 10.5119C245.878 10.3839 245.942 10.2639 246.006 10.1519L252.99 0.69589C253.198 0.42389 253.494 0.287889 253.878 0.287889H257.358C257.534 0.287889 257.678 0.34389 257.79 0.45589C257.918 0.56789 257.982 0.71189 257.982 0.88789V10.1999H260.094C260.286 10.1999 260.438 10.2639 260.55 10.3919C260.662 10.5039 260.718 10.6399 260.718 10.7999V13.1759C260.718 13.3519 260.654 13.4959 260.526 13.6079C260.414 13.7199 260.278 13.7759 260.118 13.7759H257.982V16.4879C257.982 16.6639 257.918 16.8079 257.79 16.9199C257.678 17.0319 257.534 17.0879 257.358 17.0879H254.406ZM249.87 10.3679H253.902V4.70389L249.87 10.3679Z" fill="white"/>
</svg>
